<svg width="32" height="32" id="1" data-name="1" xmlns="http://www.w3.org/2000/svg" viewBox="0 0 134.05 139.35"><defs><style>.cls-1{fill:#e5693d;}.cls-2{fill:#f5e929;}.cls-3{fill:#fff;}.cls-4{fill:#231815;}</style></defs><title>ibidai</title><path class="cls-1" d="M132.85,109.72c-4.46,15.48-18.34,26.78-34.72,26.78H89.32v-4.74h8.81A38.86,38.86,0,0,0,132.85,109.72Z" transform="translate(-3.07)"/><path class="cls-1" d="M134.37,91.38a36,36,0,0,1-.18,3.76v.07c-1.87,18.92-17.32,33.71-36.06,33.71H89.32V53.84h8.81c16.36,0,30.24,11.28,34.7,26.75a37.58,37.58,0,0,1,1.4,7.42C134.32,89.13,134.37,90.24,134.37,91.38Z" transform="translate(-3.07)"/><path class="cls-2" d="M21.3,6.92C12.77,6.92,5.82,14.12,5.82,23s7,16,15.48,16,15.51-7.21,15.51-16S29.85,6.92,21.3,6.92Z" transform="translate(-3.07)"/><path class="cls-3" d="M35.58,53.37H7a1.24,1.24,0,0,0-1.22,1.25v80.61A1.24,1.24,0,0,0,7,136.5H35.58a1.24,1.24,0,0,0,1.23-1.27V54.62A1.25,1.25,0,0,0,35.58,53.37Z" transform="translate(-3.07)"/><path class="cls-3" d="M85.35,2.84H56.81a1.25,1.25,0,0,0-1.22,1.27V135.23a1.24,1.24,0,0,0,1.22,1.27H86.58V4.11A1.25,1.25,0,0,0,85.35,2.84Z" transform="translate(-3.07)"/><path class="cls-4" d="M21.3,4.08c-10,0-18.23,8.47-18.23,18.9S11.25,41.86,21.3,41.86,39.55,33.39,39.55,23,31.37,4.08,21.3,4.08ZM21.3,39C12.77,39,5.82,31.81,5.82,23s7-16.06,15.48-16.06S36.81,14.12,36.81,23,29.85,39,21.3,39Z" transform="translate(-3.07)"/><path class="cls-4" d="M35.58,50.53H7a4,4,0,0,0-4,4.09v80.61a4,4,0,0,0,4,4.12H35.58a4,4,0,0,0,4-4.12V54.62A4,4,0,0,0,35.58,50.53Zm1.23,84.7a1.24,1.24,0,0,1-1.23,1.27H7a1.24,1.24,0,0,1-1.22-1.27V54.62A1.24,1.24,0,0,1,7,53.37H35.58a1.25,1.25,0,0,1,1.23,1.25Z" transform="translate(-3.07)"/><path class="cls-4" d="M98.13,51H89.32V4.11a4,4,0,0,0-4-4.11H56.81a4.06,4.06,0,0,0-4,4.11V135.23a4.06,4.06,0,0,0,4,4.12H98.13c21.51,0,39-18.13,39-40.38,0-1.27-.06-2.54-.18-3.8.12-1.25.18-2.5.18-3.79C137.12,69.11,119.64,51,98.13,51ZM86.58,136.5H56.81a1.24,1.24,0,0,1-1.22-1.27V4.11a1.25,1.25,0,0,1,1.22-1.27H85.35a1.25,1.25,0,0,1,1.23,1.27Zm11.55,0H89.32v-4.74h8.81a38.86,38.86,0,0,0,34.72-22C128.39,125.2,114.51,136.5,98.13,136.5Zm36.06-41.36v.07c-1.87,18.92-17.32,33.71-36.06,33.71H89.32V53.84h8.81c16.36,0,30.24,11.28,34.7,26.75a37.58,37.58,0,0,1,1.4,7.42c.09,1.12.14,2.23.14,3.37A36,36,0,0,1,134.19,95.14Z" transform="translate(-3.07)"/></svg>