<svg width="32" height="32" viewBox="0 0 24 28" fill="none" xmlns="http://www.w3.org/2000/svg">
<path d="M10.1989 28H0.401989V0.363636H10.2798C13.0597 0.363636 15.4527 0.916903 17.4588 2.02344C19.465 3.12097 21.0078 4.69981 22.0874 6.75994C23.1759 8.82008 23.7202 11.285 23.7202 14.1548C23.7202 17.0336 23.1759 19.5076 22.0874 21.5767C21.0078 23.6458 19.456 25.2337 17.4318 26.3402C15.4167 27.4467 13.0057 28 10.1989 28ZM6.24503 22.9936H9.95597C11.6832 22.9936 13.1361 22.6877 14.3146 22.076C15.5021 21.4553 16.3928 20.4972 16.9865 19.2017C17.5893 17.8973 17.8906 16.215 17.8906 14.1548C17.8906 12.1127 17.5893 10.4439 16.9865 9.14844C16.3928 7.85298 15.5066 6.89938 14.3281 6.28764C13.1496 5.6759 11.6967 5.37003 9.96946 5.37003H6.24503V22.9936Z" fill="#0097E0"/>
</svg>
